<svg width="324" height="240" viewBox="0 0 324 240" fill="none" xmlns="http://www.w3.org/2000/svg">
<path fill-rule="evenodd" clip-rule="evenodd" d="M263.879 54.0296C263.971 55.7986 264.102 56.5017 265.359 57.6429C265.778 58.0228 266.119 58.0005 266.38 57.9834C266.732 57.96 266.938 57.9465 266.992 58.9503C267.026 59.5827 266.625 60.0177 266.222 60.4551C265.983 60.7143 265.743 60.9746 265.592 61.2775C263.637 65.2004 264.878 70.2295 265.86 74.2113L265.861 74.2128C265.894 74.3477 265.927 74.4816 265.96 74.614C266.455 76.6284 267.126 78.6861 267.805 80.7676C269.888 87.153 272.044 93.7635 269.428 100.044C269.316 100.315 269.21 100.687 269.096 101.09C268.857 101.935 268.58 102.911 268.123 103.348C267.232 102.877 266.582 103.083 266.171 103.964C265.925 104.24 265.679 104.516 265.433 104.792C263.875 106.232 262.216 106.767 260.147 106.001C255.976 104.459 255.287 99.621 255.265 95.812C255.241 91.6139 256.136 87.2173 257.093 83.1274C257.13 82.9659 257.17 82.8022 257.21 82.6371C257.657 80.786 258.155 78.7198 256.942 77.0144C256.185 75.9498 255.321 75.8951 254.483 75.8419C253.94 75.8074 253.408 75.7737 252.924 75.4655C252.276 75.0518 252.412 73.3354 252.557 71.512C252.705 69.6603 252.861 67.6981 252.212 66.8793C249.962 64.0422 249.178 70.9826 249.142 72.4001C249.103 73.9528 249.187 75.7645 249.92 77.172C250.183 77.6784 250.719 78.1563 251.253 78.6328C251.886 79.197 252.516 79.7591 252.69 80.3645C252.886 81.0435 252.395 82.429 251.973 83.6221C251.747 84.2619 251.54 84.8464 251.469 85.2373C251.155 86.9623 251.046 88.7246 250.956 90.473C250.652 96.3794 251.58 102.595 255.65 107.179C257.435 109.189 260.46 111.471 263.29 111.105C265.144 110.865 267.005 110.061 268.794 109.288C269.415 109.02 270.027 108.755 270.628 108.52C272.195 114.531 274.548 120.353 277.055 126.03C277.848 127.825 278.624 129.636 279.399 131.448L279.4 131.448C280.757 134.618 282.116 137.792 283.573 140.894C286.689 147.529 291.059 153.53 295.413 159.507C297.8 162.785 300.182 166.056 302.349 169.42C308.257 178.592 311.57 189.116 312.365 199.944C312.441 200.986 312.362 202.185 312.282 203.402C312.166 205.173 312.047 206.982 312.401 208.402C312.502 208.806 312.601 209.169 312.692 209.507C313.11 211.045 313.386 212.061 313.086 214.068C312.979 214.786 312.845 215.489 312.712 216.186C312.34 218.13 311.979 220.027 312.228 222.064C312.297 222.624 312.411 223.247 312.531 223.903V223.903C312.936 226.118 313.408 228.697 312.42 230.452C311.948 229.95 311.476 229.529 311.022 229.124C309.997 228.209 309.061 227.375 308.414 225.862C308.123 225.179 307.956 224.535 307.803 223.941C307.458 222.605 307.179 221.525 305.693 220.851C305.008 220.541 304.395 220.371 303.812 220.21L303.812 220.21C302.833 219.94 301.938 219.692 300.924 218.839C298.957 217.184 297.618 215.163 296.649 212.794C294.995 208.753 294.756 204.371 296.154 200.221C297.275 196.893 300.549 190.663 305.139 192.893C305.002 192.611 304.873 192.325 304.746 192.039C304.24 190.907 303.741 189.791 302.702 189.066C302.157 188.685 301.482 188.427 300.788 188.163H300.788C300.039 187.877 299.268 187.583 298.611 187.116C297.197 186.11 295.596 185.036 294.018 184.301C293.536 184.076 293.075 183.94 292.592 183.797L292.583 183.794L292.489 183.766L292.405 183.741L292.347 183.724C292.296 183.708 292.244 183.692 292.192 183.676C291.593 183.492 290.57 183.557 290.119 183.586C289.998 183.594 289.918 183.599 289.898 183.596C287.187 183.187 284.164 181.883 282.508 179.919C281.262 178.44 280.161 177.06 279.209 175.368C278.106 173.407 277.609 173.303 275.828 172.932C275.614 172.887 275.383 172.839 275.13 172.784C271.686 172.026 269.501 171.51 266.747 168.958C263.774 166.204 261.577 162.79 259.401 159.408L259.221 159.129C258.113 157.408 257.119 157.054 255.547 156.494H255.546C255.26 156.391 254.954 156.283 254.625 156.158C254.056 155.941 253.385 155.378 252.718 154.818H252.717C251.931 154.157 251.147 153.5 250.536 153.415C250.356 153.389 249.801 153.594 249.25 153.797C248.802 153.962 248.357 154.126 248.12 154.164C247.175 154.317 246.356 154.29 245.41 154.191C243.239 153.963 241.32 153.389 239.861 151.692C235.366 146.468 233.995 134.153 240.149 129.708C240.52 129.44 240.937 129.218 241.356 128.995C242.261 128.513 243.174 128.027 243.647 127.065C244.306 125.725 244.168 123.4 244.066 121.676C244.046 121.325 244.026 120.998 244.016 120.71C243.943 118.768 243.852 116.654 243.562 114.74C243.428 113.86 243.328 113.49 242.969 112.609C242.372 111.146 242.128 111.087 241.203 110.859C241.023 110.815 240.817 110.764 240.578 110.696C240.137 110.57 239.747 110.481 239.394 110.401C238.069 110.098 237.265 109.915 236.251 108.347C235.227 106.762 234.747 104.766 234.654 102.893C234.621 102.224 234.716 101.574 234.809 100.938C234.96 99.9132 235.104 98.9239 234.698 97.9471C234.273 96.9266 233.688 96.0155 233.099 95.099C232.352 93.9343 231.598 92.7604 231.159 91.3419C231.108 91.1757 231.05 90.9939 230.988 90.7986C230.253 88.4824 228.922 84.2878 230.474 82.4712C230.804 82.0842 231.247 81.842 231.703 81.5924C232.288 81.2728 232.895 80.9412 233.315 80.2779C233.515 79.9612 233.697 79.6668 233.869 79.3891C234.812 77.8626 235.441 76.8464 237.077 75.4747C237.526 75.0976 237.97 74.6619 238.422 74.2199C239.401 73.259 240.415 72.2651 241.592 71.7645C242.557 71.3536 243.491 71.5546 244.37 71.7439C245.032 71.8863 245.662 72.0216 246.251 71.8856C247.285 71.6462 247.417 69.9202 247.536 68.3607C247.59 67.6612 247.641 66.9954 247.769 66.5121C248.329 64.4075 249.53 62.2135 250.984 60.5713C251.18 60.3504 251.395 60.2013 251.606 60.0546C251.92 59.8366 252.228 59.6235 252.453 59.1879C252.732 58.6506 252.799 57.9891 252.866 57.3237C252.923 56.7662 252.98 56.2055 253.162 55.7134C253.639 54.423 254.796 52.2016 256.089 51.4943C258.214 50.3325 259.503 51.5067 260.735 52.6291C261.695 53.5034 262.62 54.3463 263.879 54.0296ZM312.809 159.009C316.988 161.4 316.074 167.875 315.521 171.792C315.502 171.928 315.483 172.06 315.465 172.19C315.269 173.594 315.439 175.013 315.606 176.407C315.727 177.414 315.846 178.409 315.825 179.374C315.789 180.986 315.255 181.391 314.65 181.851C314.279 182.133 313.881 182.435 313.553 183.047C313.31 182.413 313.001 181.737 312.684 181.042C312.023 179.596 311.326 178.072 311.115 176.686L310.618 175.388C311.039 175.22 311.263 174.926 311.289 174.508C311.422 173.757 311.453 172.994 311.485 172.228V172.228C311.495 171.981 311.505 171.734 311.518 171.488C311.747 167.3 312.065 163.139 312.809 159.009ZM229.084 104.551V104.55V104.55L229.085 104.547C229.117 104.436 229.149 104.325 229.181 104.217C229.113 102.505 228.727 98.9651 226.786 98.1484C224.346 97.1215 223.627 99.9817 223.692 101.893C223.743 103.417 224.388 106.208 225.894 107.056C228.012 108.248 228.581 106.287 229.084 104.551ZM226.102 153.553V153.553C226.148 156.679 226.192 159.769 227.148 162.791C228.271 166.344 230.153 169.769 232.017 172.981C235.64 179.226 236.504 185.116 236.94 192.257C230.127 189.208 226.412 178.791 224.164 172.274C223.846 171.354 223.526 170.434 223.205 169.513L223.205 169.512V169.512C222.323 166.981 221.44 164.446 220.616 161.901C220.459 161.414 220.284 160.905 220.104 160.381V160.381C219.018 157.222 217.736 153.491 218.841 150.398C218.922 150.458 219.002 150.517 219.081 150.575L219.087 150.579C221.389 152.274 222.435 153.044 223.808 149.957C224.351 150.552 224.894 151.147 225.438 151.742L226.084 152.449C226.091 152.817 226.097 153.184 226.102 153.551V153.551V153.551V153.552V153.552V153.552V153.553ZM216.254 118.31C215.883 120.007 215.591 121.707 215.315 123.422C215.399 123.597 215.483 123.776 215.567 123.956H215.567C216.491 125.931 217.498 128.08 219.839 128.611C220.213 128.696 220.565 128.651 220.913 128.606C221.338 128.55 221.757 128.496 222.203 128.68C222.802 128.926 223.236 129.48 223.662 130.024C223.942 130.382 224.219 130.735 224.536 130.994C228.249 134.022 232.401 128.351 230.375 125.166C227.921 127.784 225.162 126.922 224.275 123.365C223.43 119.977 224.671 115.751 226.46 112.889C223.158 111.4 221.14 111.499 218.205 113.502C218.112 113.566 218.027 113.623 217.949 113.675L217.949 113.676C217.592 113.916 217.398 114.046 217.269 114.224C217.114 114.437 217.052 114.717 216.918 115.332V115.333L216.917 115.334C216.899 115.418 216.88 115.507 216.858 115.604C216.776 115.974 216.693 116.344 216.609 116.715V116.715V116.716C216.49 117.247 216.371 117.778 216.254 118.31ZM270.352 185.438L270.352 185.438C269.871 185.796 269.389 186.154 268.968 186.578C268.795 186.752 268.516 187.169 268.235 187.59C267.892 188.104 267.545 188.622 267.383 188.711C266.205 189.362 265.175 188.527 264.024 187.477C261.757 185.409 260.342 181.021 260.448 177.987C260.572 174.442 263.081 172.01 266.262 174.537C268.82 176.569 269.56 179.43 270.309 182.324C270.533 183.193 270.759 184.065 271.035 184.919C270.812 185.096 270.582 185.267 270.352 185.438ZM254.627 223.565C257.19 223.238 258.877 223.635 261.398 224.257C262.146 221.154 261.361 217.118 259.301 214.605C258.841 214.044 258.153 213.609 257.506 213.2C256.799 212.753 256.142 212.337 255.887 211.823C255.564 211.174 255.493 210.229 255.42 209.271C255.354 208.405 255.288 207.528 255.035 206.847C254.61 212.469 254.368 217.942 254.627 223.565ZM217.548 218.598C218.356 216.987 219.164 215.376 219.973 213.765C220.499 214.599 222.044 216.776 223.32 216.079C223.904 215.761 223.846 214.374 223.793 213.099C223.758 212.277 223.726 211.501 223.869 211.085C225.584 212.996 226.436 215.248 226.188 217.803C226.099 218.712 225.821 219.987 225.553 220.86C225.45 221.194 225.206 221.628 224.956 222.075C224.485 222.912 223.991 223.793 224.362 224.128C224.059 224.11 223.747 224.102 223.432 224.094H223.431C222.077 224.059 220.663 224.023 219.727 223.184C218.77 222.326 218.079 220.217 217.648 218.902C217.613 218.795 217.579 218.693 217.548 218.598ZM251.156 207.552C251.339 205.256 251.3 203.039 251.222 200.735C248.493 198.897 244.99 198.537 244.887 202.761C244.791 206.717 247.589 209.765 250.12 212.521L250.12 212.522L250.121 212.523L250.123 212.525C250.449 212.88 250.771 213.231 251.082 213.578C251.335 212.497 251.263 211.268 251.192 210.049C251.142 209.194 251.093 208.344 251.156 207.552ZM246.927 163.632C246.866 163.865 246.807 164.125 246.744 164.399C246.32 166.26 245.753 168.749 243.409 167.827C241.288 166.993 240.775 163.625 240.771 161.747C240.767 160.206 241.021 157.375 243.179 157.283C245.829 157.169 246.775 161.852 246.927 163.632ZM227.87 121.65C228.552 120.446 229.359 119.018 230.122 119.202C229.764 118.407 229.407 117.612 229.049 116.818C228.691 116.023 228.333 115.228 227.975 114.434C227.871 114.958 227.757 115.485 227.643 116.015C227.138 118.35 226.623 120.731 226.914 123.109C227.18 122.871 227.507 122.293 227.87 121.65ZM282.604 226.783C286.396 223.2 288.923 224.506 293.053 226.641C293.253 226.745 293.457 226.85 293.666 226.958C294.69 227.484 295.677 227.714 296.663 227.944C297.432 228.124 298.2 228.303 298.985 228.623C299.881 228.987 300.444 229.929 300.976 230.82C301.5 231.698 301.995 232.527 302.75 232.705C300.902 232.899 299.061 233.15 297.222 233.401H297.222C292.042 234.107 286.878 234.812 281.609 234.235C281.856 233.229 281.827 232.214 281.798 231.206C281.755 229.694 281.712 228.2 282.604 226.783ZM280.859 214.635C285.435 214.399 286.653 207.363 286.621 203.848C286.721 201.298 286.05 198.013 284.086 196.19C282.845 195.038 279.974 193.225 278.252 193.495C273.575 194.228 272.394 202.75 272.848 206.314C273.261 209.565 277.183 214.824 280.859 214.635Z" fill="#BABABA"/>
<path fill-rule="evenodd" clip-rule="evenodd" d="M212.246 56.7435C211.447 57.1025 212.972 59.7851 213.21 60.2773C213.829 61.562 214.585 64.2166 216.052 63.4858C214.783 61.2385 213.515 58.9908 212.246 56.7435ZM24.5236 212.392C23.4543 211.918 22.024 215.992 21.8335 216.82C21.302 219.126 21.7467 220.676 23.595 222.167C22.83 218.871 23.7465 215.588 24.5236 212.392ZM271.378 37.9093C270.048 36.185 268.127 32.9836 265.44 34.6784C264.379 35.3481 263.562 37.4946 262.908 38.5431C261.88 40.1893 260.885 41.774 260.103 43.5462C261.432 43.0008 262.215 41.8148 263.403 41.1665C264.214 40.7237 264.954 40.6811 265.736 40.3583C267.465 39.6453 269.832 38.9461 271.378 37.9093ZM54.5452 207.798C55.2648 210.611 55.9303 213.416 56.487 216.265C56.8635 218.193 58.1288 220.917 57.4686 222.803C59.179 222.574 60.8893 222.344 62.5997 222.114C61.3309 219.23 60.6632 216.153 60.2864 213.038C60.0557 211.131 60.3514 210.587 58.913 209.526C57.7992 208.704 55.8382 208.31 54.5452 207.798ZM45.085 100.13C48.3735 103.418 51.2496 107.165 54.7443 110.228C56.5603 111.82 58.4217 113.367 60.2853 114.903C61.8656 116.204 64.3787 119.074 66.4353 119.473C66.6895 118.424 67.2907 116.706 67.1296 115.63C67.7297 115.01 67.5435 114.557 66.5708 114.271C65.9756 113.814 65.3873 113.35 64.8046 112.877C62.5187 110.971 60.3554 108.901 58.1892 106.863C56.0359 104.836 54.0439 102.717 52.1747 100.427C51.1899 99.2219 50.614 98.0132 48.9989 97.6588C47.0802 97.2381 46.4417 98.7322 45.085 100.13ZM110.809 222.203C110.716 223.989 115.115 225.084 116.451 225.191C120.064 225.48 122.41 223.898 123.653 220.778C126.241 214.283 130.385 208.561 132.118 201.731C132.632 199.705 133.077 198.782 131.245 197.75C130.493 197.327 128.535 196.382 127.718 196.921C126.94 197.434 126.303 199.743 125.802 200.582C125.008 201.915 124.104 203.183 123.242 204.472C119.207 210.505 115.141 216.381 110.809 222.203ZM58.6048 132.758L75.4931 142.403C76.1973 139.974 76.5212 137.442 77.1814 134.995C77.6514 133.255 78.8605 130.798 78.784 129.271C78.6699 126.991 76.902 123.964 76.1312 121.791C75.1706 119.083 74.21 116.374 73.2494 113.665C71.9486 114.908 70.4508 115.775 70.4348 117.394C70.4259 118.32 71.0435 118.897 70.6855 119.945C70.4341 120.681 69.3655 121.657 68.8493 122.203C67.3415 123.801 67.3888 123.881 65.8043 122.387C63.4046 125.844 61.0045 129.301 58.6048 132.758ZM77.1846 177.98C77.4263 175.656 77.7367 173.428 78.26 171.148C78.5817 169.747 79.9405 166.871 79.4936 165.551C79.1651 164.582 77.2127 163.738 76.4522 163.211C74.2523 161.684 72.104 160.078 69.9261 158.52C68.0163 157.154 66.078 155.821 64.2041 154.406C62.4685 153.096 61.1585 151.466 59.0581 150.904C57.2205 150.413 54.8886 150.734 52.9852 150.67C50.4309 150.585 47.8371 150.557 45.2852 150.682C36.7213 151.101 27.1274 150.502 18.8884 152.888C14.9944 154.016 12.4841 154.679 10.3073 158.363C7.78993 162.624 5.63908 167.051 3.80784 171.653C3.54049 172.325 2.93612 173.295 2.95923 174.029C3.00331 175.431 3.50565 175.108 4.85197 175.908C6.30673 176.772 7.73269 177.797 9.12239 178.77C11.5054 180.438 14.464 182.18 16.9363 183.481C19.9109 185.046 22.9075 186.45 25.9332 188.026C27.8505 189.025 29.835 189.841 31.7156 190.939C33.7574 192.131 36.0433 192.471 38.2443 193.401C45.0594 196.283 51.6553 198.947 58.3432 202.235C64.8711 205.444 71.474 208.156 78.153 210.987C86.7852 214.646 95.3321 218.03 104.335 220.56C104.994 220.745 106.38 221.398 107.031 221.368C108.422 221.305 108.738 220.289 109.574 219.144C111.217 216.894 112.8 214.601 114.372 212.302C117.781 207.313 121.114 202.269 124.784 197.466C114.384 194.567 104.74 189.219 95.5976 183.731C95.2083 184.823 94.8983 187.244 93.6505 187.609C92.1076 188.062 90.9866 185.927 90.2952 184.945C89.6407 186.573 88.5208 192.063 86.4261 191.943C83.5319 191.777 84.0428 187.227 83.6823 185.421C82.0868 187.539 80.2377 189.975 78.0695 186.718C76.5667 184.46 76.7334 180.497 77.1846 177.98ZM197.689 152.033C196.348 151.614 195.015 151.242 193.703 150.773C193.358 150.043 192.786 149.821 191.986 150.109C191.33 150.167 190.692 150.086 190.072 149.865C187.333 149.397 184.298 148.79 181.68 148.001C179.348 147.298 177.15 146.678 174.781 146.15C173.374 145.837 167.109 144.066 166.182 145.108C165.898 145.429 166.388 149.315 166.319 150.008C166.196 151.24 166.135 153.268 165.354 154.293C165.054 154.687 163.913 155.123 163.501 155.429C162.161 156.424 160.923 157.661 159.59 158.693C156.68 160.946 153.845 163.284 150.876 165.463C148.777 167.003 146.375 167.765 144.044 168.884C145.702 169.181 148.948 167.586 150.622 167.092C152.79 166.452 154.918 165.74 157.135 165.153C161.682 163.95 166.341 162.593 170.962 161.312C173.8 160.526 176.798 159.707 179.55 158.666C180.77 158.204 181.728 157.13 182.535 158.223C183.178 159.096 182.399 160.244 181.905 160.89C179.02 164.661 171.185 165.579 166.992 167.143C162.259 168.908 157.59 170.768 152.717 172.008C147.026 173.456 140.848 174.564 135.545 177.108C131.145 179.218 126.161 180.036 121.483 181.274C117.09 182.437 111.88 182.67 107.728 184.644C109.522 186.059 112.176 186.797 114.266 187.748C116.825 188.912 119.411 189.974 121.941 191.208C123.019 191.733 124.146 192.514 125.236 192.95C126.62 193.504 126.442 193.212 127.871 193.1C130.096 192.925 133.097 192.526 134.904 194.143C137.084 196.094 135.703 198.232 136.023 200.619C136.242 202.256 136.354 201.993 138.173 202.243C139.848 202.473 141.521 202.741 143.173 203.099C145.213 203.541 147.3 204.281 149.287 204.92C152.368 205.91 152.702 207.075 155.913 205.797C165.058 202.157 174.517 199.165 183.72 195.72C187.959 194.133 192.216 191.073 196.206 188.774C201.326 185.824 205.955 182.633 209.421 177.721C211.001 175.483 212.648 171.701 212.316 168.922C212.019 166.437 210.178 163.674 208.992 161.537C207.476 158.809 206.142 157.75 203.823 155.937C202.211 154.677 199.721 152.016 197.689 152.033ZM95.844 173.153C95.9858 174.525 95.1831 180.18 95.9784 181.05C97.3382 182.538 100.674 180.802 101.964 180.359C106.156 178.919 111.029 179.234 115.298 178.094C119.439 176.989 123.49 175.556 127.655 174.43C129.889 173.825 132.009 172.877 134.206 172.158C136.653 171.356 139.383 170.917 141.652 169.712C141.371 169.015 131.555 170.691 130.44 170.782C126.565 171.096 122.917 170.499 119.098 169.798C110.675 168.25 102.738 164.581 94.423 162.201C94.8127 166.03 105.604 166.793 104.318 171.238C103.96 172.477 99.1321 174.502 97.5355 173.724C94.2918 172.145 98.2597 169.921 99.8766 169.367C97.4154 167.958 95.0601 166.429 92.8136 164.692C90.4086 162.833 89.3737 160.225 88.0846 157.533C85.3902 151.906 79.0137 148.632 74.0607 145.129C68.7049 141.341 63.0021 138.121 57.6496 134.341C56.6943 133.667 56.2481 133.976 55.9125 132.744C55.5535 131.425 56.8728 129.749 57.513 128.743C59.196 126.098 61.1563 123.594 63.3797 121.38C60.5125 119.431 57.4153 117.822 54.7265 115.616C52.0012 113.379 49.7458 110.649 47.3415 108.089C43.5005 116.437 38.1174 124.179 33.89 132.366C32.2201 135.599 31.3374 140.489 33.8768 143.623C36.5492 146.92 41.5324 145.637 45.3047 145.811C49.2861 145.996 52.918 146.447 56.845 147.574C58.6215 148.085 60.2387 147.934 61.9463 148.754C63.9489 149.714 65.9184 150.949 67.8236 152.088C71.5703 154.328 75.0707 157.132 78.6088 159.688C80.06 160.736 87.9292 166.95 81.7049 165.991C81.7049 171.806 80.685 177.761 80.1496 183.548C81.6256 181.788 82.6783 179.999 83.5714 177.883C84.1025 176.625 84.1093 173.414 85.8794 174.175C88.5421 175.32 86.4681 183.733 86.4681 186.008C87.1279 184.735 87.5901 183.364 88.065 182.014C88.4248 180.992 88.8745 178.094 89.6254 177.408C92.1389 175.113 92.4912 181.371 92.4912 182.677C93.3053 180.37 93.455 177.908 93.5367 175.471C93.5687 174.509 93.3309 173.013 93.5741 172.082C93.9786 170.532 93.9306 170.633 95.5564 169.978C95.6524 171.036 95.7484 172.095 95.844 173.153ZM173.49 222.228C173.689 224.195 174.451 225.619 173.156 227.389C175.66 227.21 178.124 226.99 180.632 227.054C182.646 227.105 185.657 227.565 187.535 226.704C188.301 226.353 188.561 226.957 188.954 226.286C189.328 225.649 188.45 223.535 188.345 223.011C187.838 220.494 187.592 217.912 187.132 215.38C186.816 213.639 185.888 210.216 187.055 208.571C188.77 206.151 189.526 209.56 189.973 211.074C191.445 216.061 191.36 220.797 191.36 225.922C193.577 225.922 196.49 224.954 198.629 224.371C201.578 223.566 204.728 222.739 207.586 221.688C210.282 220.697 212.655 219.25 214.36 216.922C215.635 215.181 218.461 210.885 217.759 208.96C216.898 206.599 212.793 204.976 210.601 204.717C207.757 204.38 204.842 204.95 201.932 205.19C198.817 205.447 195.794 206.139 192.712 206.473C189.718 206.796 185.701 207.794 182.793 207.046C182.717 208.241 183.717 209.847 184.066 211.064C184.523 212.659 184.93 214.268 185.301 215.885C185.698 217.615 188.156 223.837 185.921 225.081C183.297 226.541 182.044 220.289 181.718 218.765C180.938 215.131 180.269 211.5 181.084 207.847C177.735 207.244 173.696 208.14 170.242 208.377C171.529 212.904 172.359 217.646 173.49 222.228ZM29.2317 224.196C30.3963 224.713 31.9969 224.436 33.2628 224.535C35.2413 224.69 37.24 225.047 39.2315 224.984C42.2705 224.887 45.4562 224.503 48.4976 224.156C46.7627 221.031 45.71 218.072 45.4935 214.491C45.4157 213.204 44.732 205.225 47.109 205.566C48.2559 205.731 48.0123 212.544 48.2349 213.799C48.5584 215.62 48.9758 217.484 49.4838 219.267C49.8525 220.56 51.1067 222.496 50.7853 223.894C52.3186 223.646 53.8523 223.398 55.386 223.15C54.1936 220.775 53.3226 218.647 52.8761 215.999C52.6603 214.72 52.7979 213.129 52.3794 211.915C52.1157 211.15 51.5141 210.43 51.4338 209.789C51.341 209.049 52.153 207.229 51.8526 206.572C51.5575 205.925 49.503 205.327 48.7831 204.971C46.799 203.989 45.6361 203.74 43.4124 204.305C39.1231 205.394 32.3652 206.166 29.1663 209.103C25.9972 212.012 24.844 221.825 29.2317 224.196ZM216.557 82.3797C217.745 82.2458 218.92 82.1631 220.114 82.1017C218.37 79.6509 216.786 77.0893 215.34 74.4525C214.632 73.1607 213.963 71.8483 213.322 70.5217C212.586 68.9995 212.607 68.0056 211.009 67.7031C208.797 67.2845 205.838 68.121 203.562 68.0259C201.803 67.952 197.855 66.2995 196.439 66.8985C197.73 69.5424 196.694 73.656 196.744 76.502C196.795 79.3324 196.443 82.0683 195.944 84.8592C198.961 84.8592 202.738 83.8188 205.783 83.354C209.329 82.8129 212.945 82.7848 216.557 82.3797ZM168.66 227.674C169.823 227.525 170.927 227.479 172.101 227.479C169.457 223.199 167.462 218.413 167.439 213.313C167.436 212.646 168.239 208.813 167.974 208.494C167.456 207.874 165.307 208.364 164.718 208.422C162.311 208.663 159.635 208.644 157.369 209.51C155.805 210.108 155.788 209.747 155.166 211.586C154.798 212.673 154.534 213.915 154.527 215.058C154.512 217.368 155.249 220.069 156.203 222.149C157.111 224.129 158.545 226.253 160.518 227.316C162.792 228.543 165.995 227.813 168.66 227.674ZM192.693 68.6757C192.236 66.9706 192.434 67.3555 190.914 67.1439C190.594 67.0995 187.113 67.1716 186.913 67.3754C186.683 67.6104 186.77 71.0821 186.74 71.4794C186.637 72.8411 186.485 74.1993 186.336 75.5568C185.733 81.0676 184.59 86.4024 183.732 91.8678C185.851 90.5547 188.913 92.345 190.723 90.9236C192.153 89.8005 191.939 86.2064 192.046 84.6206C192.403 79.3128 192.524 73.992 192.693 68.6757ZM269.197 62.2402C269.007 62.5459 268.816 62.8516 268.626 63.1574C269.366 63.631 273.696 58.8122 274.659 57.9501C275.942 56.8021 277.972 55.2692 278.551 53.5908C279.223 51.6403 278.562 48.561 278.399 46.5442C278.283 45.1008 278.53 43.1045 277.351 42.0961C276.267 41.1682 273.596 41.1931 272.312 41.3916C268.458 41.9874 266.14 45.1526 264.195 48.1687C266.17 47.9261 273.134 44.751 273.942 46.4682C275.117 48.963 267.804 51.1936 267.081 53.3827C268.578 53.9107 271.88 51.8626 270.951 55.2703C270.793 55.7472 270.516 56.142 270.122 56.4548C269.438 56.6967 269.277 57.1522 269.636 57.8219C269.33 59.1567 269.393 60.8454 269.197 62.2402ZM313.553 183.048C313.574 183.857 313.648 184.63 314.31 185.202C315.778 180.558 316.237 175.912 316.845 171.082C317.454 166.252 318.102 161.301 318.198 156.475C318.306 151.066 317.795 145.182 316.919 139.838C316.233 135.66 315.703 130.519 313.209 126.963C314.625 136.178 314.185 144.914 313.23 154.161C312.723 159.072 312.007 163.944 311.679 168.875C311.593 170.177 311.565 171.495 311.451 172.795C311.385 173.561 310.625 175.013 310.618 175.389C310.581 177.476 312.819 181.131 313.553 183.048ZM238.2 175.871C239.378 178.578 240.717 181.244 241.423 184.123C242.169 187.162 241.848 189.993 241.967 193.073C242.165 198.183 241.755 203.263 241.827 208.38C241.888 212.742 241.721 216.994 241.764 221.309C241.792 224.039 241.642 226.759 241.652 229.487C241.652 229.479 241.76 231.936 241.572 232.061C240.729 232.621 239.807 231.826 239.548 231.061L237.048 233.886C238.359 233.558 239.97 232.871 241.318 232.81C241.834 232.62 242.347 232.615 242.859 232.794C243.367 233.101 243.744 233.528 243.989 234.077C247.519 234.828 249.638 231.69 250.272 228.883C251.648 222.795 251.152 216.784 251.052 210.637C250.836 197.283 252.96 184.009 252.76 170.654C252.721 168.07 252.622 165.516 253.011 162.936C253.733 158.144 254.798 162.531 254.969 164.792C255.484 171.588 256.379 178.6 255.886 185.437C255.443 191.598 255.484 197.816 255.177 203.996C254.85 210.564 254.324 216.992 254.627 223.566C256.393 223.34 262.073 223.004 262.665 225.482C263.18 227.643 261.105 226.843 260.026 226.752C258.278 226.604 256.57 227.014 254.659 226.671C254.8 229.578 255.201 233.476 252.6 235.439C251.321 236.404 249.203 237.275 247.708 237.845C246.243 238.403 243.763 239.639 242.237 239.571C241.157 239.523 240.741 238.943 239.557 239.036C237.799 239.174 236.277 240.348 234.414 239.378C230.88 237.538 232.617 232.187 234.849 230.043C235.424 229.49 236.07 228.885 236.842 228.616C237.209 228.487 238.745 228.642 238.922 228.45C239.575 227.742 238.759 223.598 238.672 222.811C238.214 218.686 237.715 214.473 237.527 210.329C237.35 206.433 237.153 202.53 237.019 198.632C236.99 197.784 237.367 196.039 237.011 195.297C236.419 194.064 233.822 193.279 232.695 192.705C233.699 202.527 235.174 213.085 231.54 222.44C230.818 224.298 230.009 226.95 228.179 227.983C226.455 228.958 222.393 228.82 220.327 228.936C218.105 229.06 215.93 228.542 214.706 226.458C213.742 224.818 214.32 222.851 216.298 222.136C217.482 221.708 217.713 221.983 218.75 222.492C218.975 222.857 219.133 223.25 219.224 223.669H220.022C221.102 224.151 225.422 224.69 226.61 223.921C227.986 223.032 228.285 220.626 228.872 219.197C229.962 216.541 230.251 214.386 230.647 211.548C231.266 207.105 230.639 201.953 230.651 197.324C230.654 196.021 230.66 194.717 230.661 193.414C230.664 191.445 230.836 191.457 229.711 190.039C228.016 187.903 226.083 185.72 224.268 183.672C225.251 189.655 224.849 195.954 224.459 201.915C224.24 205.263 223.786 208.674 223.578 211.978C223.516 212.971 224.23 215.708 223.075 216.147C221.904 216.593 220.446 214.515 219.973 213.765C217.39 218.912 214.308 223.877 208.98 226.539C206.24 227.909 203.388 228.526 200.398 229.063C197.628 229.561 195.068 230.468 192.338 230.897C186.686 231.783 181.48 231.908 175.793 231.714C170.427 231.532 165.289 232.522 159.94 231.276C157.853 230.789 155.744 229.896 154.317 228.3C153.538 227.429 153.193 226.058 152.408 225.256C152.231 224.217 151.619 223.896 150.572 224.294C149.914 224.323 149.259 224.302 148.606 224.229C143.242 223.947 137.28 224.261 132.081 222.731C130.108 222.15 127.906 221.193 128.89 218.726C129.75 216.571 132.124 217.225 134.071 217.414C139.726 217.961 145.293 218.959 151.029 219.461C150.845 216.468 151.004 213.414 152.179 210.613C148.199 210.114 144.074 209.362 140.287 208.093C139.118 207.701 137.954 207.293 136.794 206.874C134.882 206.184 135.279 206.005 134.172 207.21C132.78 208.724 131.928 211.883 130.92 213.713C129.786 215.772 128.697 217.807 127.741 219.956C126.836 221.99 126.162 224.714 124.783 226.467C121.751 230.322 114.747 230.656 110.625 229.142C108.606 228.4 107.877 228.283 106.653 226.476C105.313 224.496 104.98 224.38 102.51 224.111C98.05 223.626 93.8407 222.508 89.6627 220.964C85.2487 219.333 80.7162 218.062 76.315 216.301C72.195 214.652 68.2129 212.994 63.9499 211.707C63.444 214.918 65.5401 218.54 65.5401 221.851C68.0206 221.603 70.3335 221.385 72.7922 220.991C73.6689 220.851 79.1925 219.613 79.7315 220.343C81.978 223.389 71.7563 224.821 70.1586 225.223C65.0389 226.514 59.8182 227.713 54.6661 228.71C49.4074 229.728 44.2809 230.742 38.9425 230.925C29.9093 231.234 17.4497 230.713 17.8809 218.859C18.0501 214.214 19.966 209.174 23.632 206.144C25.913 204.26 28.7574 203.223 31.5461 202.371C32.5763 202.055 38.0039 201.319 38.1689 200.913C36.6395 199.819 34.0254 199.533 32.2109 198.689C30.481 197.885 28.6554 197.585 26.8846 196.774C23.3462 195.154 19.9286 193.173 16.6569 191.17C14.0548 189.576 11.424 187.817 9.02853 185.922C7.12512 184.418 5.30099 182.97 3.77939 181.25C2.98305 180.35 1.57344 179.553 0.935653 178.778C-1.30407 176.055 1.05795 170.638 2.01179 167.469C3.40504 162.836 5.26437 157.907 8.00643 153.893C10.5281 150.203 13.3395 147.716 17.8628 146.852C22.0375 146.054 26.2354 145.801 30.5051 145.577C29.7877 142.851 28.7777 140.927 29.034 137.937C29.2758 135.117 30.7014 132.315 31.8202 129.747C33.9003 124.973 35.8627 120.3 38.7075 115.905C40.271 113.489 42.0273 111.196 43.7341 108.881C44.0093 108.508 45.72 106.801 45.6546 106.32C45.5895 105.842 43.8717 104.387 43.6086 104.053C41.8421 101.814 40.6209 99.4019 42.6953 97.0048C43.7768 95.7549 46.9565 93.231 48.4869 94.8189C50.1418 91.479 53.0364 89.2019 55.29 86.3605C58.0996 82.8175 60.7823 79.2205 63.4124 75.5096C66.0311 71.8146 68.1702 67.8451 71.6414 64.8674C75.5098 61.5492 79.1513 61.8361 83.9024 63.2547C84.1736 61.4242 84.5508 61.6678 86.3234 61.0567C87.6651 60.594 88.9691 60.0451 90.2884 59.5227C91.6906 58.967 93.1098 58.6517 94.5432 58.215C96.4526 57.6334 96.7395 57.8233 97.0499 55.3466C97.4253 52.354 96.143 49.1899 95.3161 46.3709C94.9079 44.98 94.6242 43.2487 93.7059 42.313C92.8751 41.4669 91.4022 41.0816 90.4935 40.146C82.6645 32.0853 82.5411 14.8744 90.8807 7.38286C92.5015 5.92667 93.8382 3.96769 95.8557 2.98447C98.0709 1.90466 100.993 1.03152 103.433 0.522686C108.462 -0.525514 114.102 -0.192802 118.077 3.33813C120.038 5.07944 121.234 7.8473 121.902 10.3197C122.54 12.6814 122.404 16.6732 119.983 13.0233C118.457 10.7213 117.131 8.37354 114.548 7.23479C112.239 6.21748 109.42 5.66817 106.904 5.88406C100.977 6.39254 96.1729 8.13101 92.0695 12.5131C87.5325 17.3582 87.3018 25.0937 88.2798 31.2547C89.1415 29.4324 89.7253 26.5471 92.1413 26.1991C94.155 25.909 97.3293 28.4769 96.2486 30.6877C91.345 29.4392 89.9109 36.8455 94.1511 37.2915C95.4348 37.4264 97.0606 35.1439 98.2426 35.6755C100.453 36.669 97.4907 40.0927 96.9066 41.2201C96.5963 41.4108 96.2859 41.6014 95.9755 41.7925C96.2813 42.5019 96.5899 43.2103 96.9016 43.9173C97.2796 44.8188 97.6393 45.7225 97.9714 46.6422C98.7795 48.8802 99.6174 51.1879 100.104 53.5194C100.599 55.8899 100.856 58.6581 99.6864 60.8852C98.4005 63.3331 97.1893 63.032 96.2013 60.7034C93.6153 62.3314 91.0151 64.0674 87.9751 64.7098C91.163 70.0516 95.2898 74.6439 101.495 76.3241C106.754 77.7484 113.374 77.6962 118.392 75.3402C123.599 72.8955 126.465 67.1815 125.845 61.4966C125.644 59.6555 124.571 53.2605 127.123 57.8865C128.523 60.4236 128.625 64.539 128.306 67.321C126.78 80.6288 113.274 85.6074 101.627 82.4038C95.6531 80.7602 91.3478 76.3607 88.1425 71.1818C87.3949 69.9742 86.7109 68.7279 86.0429 67.4748C85.7759 66.9741 85.5409 66.275 85.1847 65.8357C83.7886 64.1147 85.1601 65.0737 83.678 64.8582C81.3843 64.5251 77.7747 66.2796 76.0715 67.6697C71.4502 71.441 68.8905 77.4739 65.3435 82.227C61.5673 87.2869 56.7714 91.7904 51.9606 95.8277C57.4025 101.395 62.8439 106.962 68.2858 112.529C69.4099 111.286 71.5469 108.445 71.8459 106.783C72.0211 105.809 71.2344 102.604 73.654 104.03C75.2876 104.994 75.9072 109.118 76.4167 110.805C77.2038 113.41 78.5291 115.864 79.3859 118.442C80.9751 123.227 82.9329 127.969 84.5608 132.787C85.2227 134.747 87.1101 137.178 85.2967 138.837C82.5404 141.358 81.7209 136.395 80.9911 134.5C79.9746 135.911 80.1065 138.2 79.5825 139.846C79.2626 140.851 78.2881 142.416 78.3205 143.407C78.3756 145.101 79.9153 145.605 81.3028 146.552C83.8842 148.313 86.5331 150.033 88.8976 152.084C89.8842 152.94 90.7918 153.805 91.5117 154.906C92.1403 155.867 92.3294 158.034 93.0241 158.703C93.9328 159.577 97.2916 158.968 99.0653 159.158C102.027 159.476 105.029 160.528 107.904 161.284C112.992 162.622 118.225 164.547 123.554 165.262C128.787 165.963 133.698 165.615 138.914 164.68C141.763 164.17 144.823 163.56 147.422 162.191C150.417 160.615 153.072 158.094 155.869 156.19C157.121 155.338 158.402 154.533 159.682 153.725C161.393 152.645 160.945 152.879 161.057 151.164C161.186 149.179 162.015 145.388 160.688 143.621C160.133 142.883 158.432 142.344 157.631 141.807C156.467 141.027 155.423 140.12 154.175 139.492C152.813 138.806 152.773 139.349 152.14 137.667C151.566 136.139 151.187 134.539 150.66 132.996C148.247 125.936 147.624 118.766 146.624 111.394C146.16 107.97 145.02 103.31 146.311 99.9747C148.105 95.3355 149.607 101.824 149.986 103.486C151.699 100.556 152.683 97.2959 154.465 94.4024C155.505 92.7154 156.013 91.8533 156.599 90.0047C156.836 89.2562 156.931 88.6344 157.432 88.0127C158.492 86.6975 158.649 87.4471 159.752 87.4147C163.22 87.3132 166.63 87.4023 170.102 87.5628C172.02 87.6516 173.939 87.6984 175.872 87.6913C176.813 87.6878 177.766 87.642 178.706 87.696C179.213 87.6906 179.718 87.7283 180.22 87.8092C181.256 88.2921 181.651 87.876 181.406 86.5604C182.308 84.676 182.248 81.6692 182.567 79.6132C182.889 77.5438 183.187 75.4709 183.455 73.3936C183.599 72.2833 184.804 68.0937 184.164 67.1815C183.53 66.2771 180.227 66.4799 179.25 66.3176C172.753 65.2388 166.709 62.5647 160.632 60.3739C157.64 59.2955 154.8 57.8393 151.93 56.5163C150.436 55.8274 149.025 54.4089 147.45 53.9671C145.463 53.4097 142.825 54.3009 140.845 54.6365C137.071 55.276 133.431 55.8359 129.602 56.044C128.25 56.1175 125.676 56.4964 124.456 55.5678C122.004 53.703 124.796 52.6125 126.398 52.3771C133.486 51.336 140.552 50.7377 147.694 50.3031C148.029 50.2828 149.255 50.0339 149.664 50.1624C150.594 50.4557 150.219 50.7959 150.776 51.0984C151.808 51.6588 152.987 52.0714 154.297 52.419C158.037 53.4111 161.803 55.0757 165.556 56.3838C172.309 58.7373 180.376 62.4898 187.13 61.8301C188.796 61.6674 190.167 61.4594 191.909 61.628C193.95 61.8258 195.141 62.8712 196.708 63.1751C198.809 63.582 201.813 63.2763 204.024 63.3544C206.132 63.429 208.242 63.5266 210.351 63.5266C208.499 59.8068 207.371 56.3142 206.33 52.3192C205.762 50.1404 204.908 48.1616 205.278 45.867C205.453 44.784 205.886 43.7664 206.359 42.7881C207.072 41.3113 207.275 41.6203 207.528 39.9847C207.876 37.7339 207.377 35.3605 207.65 33.1029C207.931 30.786 209.684 28.7209 209.879 26.5059C209.984 25.3274 209.323 24.3654 209.521 23.0942C209.698 21.9573 210.372 20.7653 210.977 19.808C212.387 17.5772 214.104 16.3124 216.487 15.4038C218.402 14.6734 220.847 14.0033 222.782 15.1861C224.757 16.3927 224.614 18.8211 225.56 20.5931C227.594 24.4031 232.288 27.808 236.029 29.7538C239.466 31.5413 243.169 32.6704 246.854 33.8362C249.097 34.5456 251.403 35.0516 253.607 35.8623C255.194 36.446 257.782 37.8617 259.397 37.0017C260.806 36.2521 262.448 33.9647 263.842 32.9027C265.472 31.6602 267.647 30.4476 269.7 31.5299C271.753 32.6118 271.585 36.6001 273.182 37.35C273.738 37.6114 275.39 36.8458 276.149 36.9666C277.374 37.1611 278.218 37.9185 278.952 38.851C281.695 42.3354 282.545 47.8622 282.665 52.1577C282.725 54.3031 282.673 56.9715 281.361 58.7931C279.831 60.9179 276.935 60.9704 274.971 62.4657C273.4 63.6616 272.286 65.6167 270.692 66.891C269.71 67.6765 269.331 67.0732 268.924 68.2972C268.659 69.0932 269.194 70.6464 269.352 71.4165C270.329 76.1682 272.158 80.551 273.893 85.0776C274.711 87.2106 275.405 89.3439 275.778 91.6043C276.023 93.0875 275.74 94.3843 275.859 95.8113C275.943 96.8272 276.375 97.7046 276.28 98.7464C276.078 100.953 274.879 102.901 274.116 104.842C273.246 107.054 274.441 110.885 275.317 113.173C277.416 118.654 280.368 124.191 282.99 129.457C285.566 134.631 287.482 140.14 290.484 145.109C293.399 149.936 296.828 154.661 300.145 159.226C301.99 161.765 303.947 164.18 305.619 166.844C305.984 167.426 308.479 172.255 309.126 172.088C308.333 163.66 309.135 154.895 309.49 146.473C309.934 135.93 308.59 126.38 305.62 116.317C304.926 113.964 304.307 111.556 303.818 109.152C303.476 107.469 302.511 106.085 304.881 106.821C308.805 108.04 312.26 115.44 314.255 118.66C318.723 125.875 322.456 135.495 322.957 143.957C323.449 152.262 323.024 160.209 321.985 168.392C321.472 172.429 320.644 176.929 319.378 180.79C318.726 182.776 317.944 184.833 317.077 186.736C316.711 187.539 315.907 188.446 315.768 189.329C315.548 190.729 316.575 192.618 316.832 194.001C317.672 198.525 317.865 203.213 317.579 207.804C317.425 210.267 317.085 212.469 316.28 214.785C315.255 217.735 315.732 219.989 316.158 223.03C316.615 226.285 317.052 233.683 313.664 235.532C313.425 235.508 313.185 235.483 312.945 235.458C312.34 234.761 311.802 234.803 311.333 235.583C310.456 235.868 309.6 236.604 308.677 236.92C306.535 237.655 304.224 237.699 301.99 238.022C297.618 238.654 293.26 239.77 288.964 239.905C283.877 240.065 278.571 239.865 273.597 238.975C272.569 238.79 271.367 238.304 270.339 238.21C268.944 238.084 267.965 239.01 266.524 238.792C264.291 238.455 262.881 236.095 262.735 234.161C262.27 227.999 265.692 225.173 271.286 224.079C267.672 218.911 263.51 214.671 262.549 208.033C261.602 201.502 263.655 193.944 267.384 188.712C270.963 183.689 277.071 180.331 283.37 181.606C286.293 182.197 300.084 186.264 297.418 190.877C296.827 188.767 293.191 189.175 291.435 188.871C288.52 188.365 285.606 187.603 282.65 187.76C276.834 188.069 271.214 191.504 268.398 196.705C265.151 202.701 266.632 208.685 270.541 213.805C274.115 218.486 277.799 223.404 282.604 226.784C281.676 228.259 282.012 228.722 280.166 228.458C278.899 228.277 277.714 227.29 276.433 227.044C273.778 226.535 269.598 228.708 267.958 230.881C266.988 232.165 267.024 232.8 268.812 233.59C270.131 234.174 272.208 233.872 273.624 233.999C277.148 234.313 280.741 234.418 284.276 234.406C290.396 234.383 296.088 233.403 302.145 232.768C304.829 232.486 307.637 232.811 310.263 231.824C313.821 230.488 312.949 226.563 312.488 223.384C312.031 220.234 312.496 217.792 312.992 214.673C313.207 213.318 313.608 211.755 313.324 210.391C312.987 208.771 312.382 208.054 312.459 206.248C312.733 199.818 311.926 193.047 310.22 186.842C306.514 173.364 297.466 162.727 289.919 151.271C287.788 148.036 285.547 144.97 283.85 141.466C282.243 138.147 281.136 134.636 279.54 131.307C276.021 123.97 272.684 116.412 270.628 108.52C268.298 109.435 265.788 110.783 263.29 111.106C260.46 111.472 257.435 109.189 255.651 107.179C251.58 102.596 250.652 96.3798 250.956 90.4734C251.046 88.725 251.155 86.9627 251.469 85.2377C251.672 84.1182 252.991 81.4082 252.691 80.365C252.369 79.2486 250.495 78.2781 249.92 77.1724C249.187 75.7649 249.103 73.9532 249.142 72.4005C249.178 70.983 249.962 64.0426 252.212 66.8793C253.5 68.5045 251.617 74.6318 252.925 75.4659C254.102 76.2162 255.723 75.2994 256.943 77.0148C258.261 78.8686 257.555 81.1536 257.093 83.1278C256.138 87.2106 255.241 91.6192 255.265 95.8124C255.287 99.6306 255.97 104.458 260.148 106.002C262.258 106.782 263.86 106.245 265.434 104.792C265.794 104.378 266.162 103.97 266.537 103.568C266.882 102.977 267.41 102.903 268.123 103.348C268.65 102.93 269.431 100.039 269.695 99.3934C272.93 91.4751 267.83 82.3836 265.96 74.6144C264.816 69.8624 263.819 65.0957 266.134 60.5095C266.509 59.767 267.541 59.1219 266.922 58.0566C266.759 57.7765 265.2 57.6451 264.831 57.3195C263.629 56.2595 263.879 54.2835 263.879 52.8685C261.099 53.725 260.298 51.5643 260.659 48.9161C258.585 49.2446 257.144 49.878 256.377 47.4812C255.696 45.3557 256.724 43.1883 257.406 41.2076C247.81 40.1804 237.446 38.8641 229.798 32.2504C227.912 30.6195 226.344 28.5668 225.037 26.4402C224.801 26.0556 223.689 23.3485 223.32 23.2072C222.225 22.7871 221.306 24.9275 220.333 25.4577C219.467 25.9285 218.237 26.1881 217.276 26.475C216.371 26.7452 213.182 26.7992 212.616 27.2682C211.202 28.4414 211.314 35.2238 211.303 36.7979C211.264 42.2193 212.476 47.6218 214.717 52.5578C216.827 57.2066 220.056 63.5994 224.277 66.6418C225.344 67.4109 226.304 67.8096 227.655 67.7461C228.621 67.701 229.578 67.0256 230.584 67.3768C233.128 68.2659 232.218 70.0324 230.262 70.8676C224.671 73.2559 219.959 68.0056 216.726 64.3376C215.78 68.6895 220.169 73.8393 222.492 77.3901C223.972 79.653 225.436 81.9181 226.844 84.2272C227.866 85.9042 229.876 89.0012 226.306 87.7059C224.584 96.7328 219.858 104.627 217.444 113.4C214.967 122.404 212.807 132.687 212.807 142.064C214.693 140.753 215.645 134.775 218.182 139.35C218.457 139.845 218.371 140.664 218.733 141.097C219.233 141.695 219.836 141.529 220.602 141.955C221.818 142.631 222.603 143.978 221.516 145.146C222.916 144.821 224.382 144.987 224.684 146.641C224.853 147.569 223.492 151.868 222.477 152.22C219.381 153.29 215.949 147.118 215.111 145.154C213.177 147.093 210.949 148.584 209.167 145.449C207.839 143.112 208.61 139.577 208.797 137.034C209.175 131.91 209.667 126.912 210.407 121.838C211.795 112.322 215.318 103.86 219.645 95.2947C220.836 92.9373 222.156 90.5242 223.22 88.1121C224.825 84.4729 222.314 85.3315 219.86 85.8598C215.051 86.8956 210.016 87.6992 205.157 88.0659C202.621 88.2573 199.373 88.3713 196.936 89.1035C195.222 89.6184 195.516 89.2629 194.828 91.0959C194.52 91.9161 194.173 92.7885 193.63 93.4909C190.861 97.0744 183.69 96.4746 179.73 96.2076C179.97 94.6964 180.207 93.1844 180.456 91.6746C177.407 92.3901 173.785 92.8883 170.646 92.8517C168.955 92.8326 167.157 92.5751 165.471 92.4349C164.228 92.3315 161.871 91.4513 160.701 91.7936C159.344 92.1909 157.292 97.09 156.517 98.6697C155.06 101.636 152.458 104.932 151.539 108.056C150.724 110.825 152.386 115.603 152.909 118.36C153.663 122.344 154.351 126.337 155.616 130.2C156.533 133.001 157.59 136.863 160.406 138.26C163.212 139.653 165.229 140.436 168.265 140.153C173.613 139.654 179.302 140.473 184.582 141.512C190.018 142.581 194.996 143.062 200.159 144.968C211.868 149.29 219.324 162.605 214.909 174.803C212.37 181.818 208.187 187.032 202.051 191.373C198.924 193.584 195.23 195.379 191.802 197.083C190.228 197.866 188.681 198.815 187.077 199.51C185.905 200.018 183.89 201.188 182.617 201.316C184.03 201.988 185.281 201.359 186.752 201.15C188.832 200.855 190.957 200.791 193.046 200.534C196.296 200.132 199.499 199.828 202.751 199.425C205.526 199.081 208.658 198.959 211.416 199.356C212.749 199.547 214.754 199.925 215.941 200.566C216.874 201.07 217.73 202.232 218.734 202.808C219.837 198.28 219.321 192.699 219.373 188.046C219.415 184.248 219.585 180.534 219.943 176.754C220.343 172.526 217.754 167.718 216.797 163.577C215.903 159.701 213.519 154.789 214.396 150.744C215.503 145.645 218.399 154.805 218.797 156.115C220.044 160.213 221.491 164.213 222.873 168.263C224.516 173.081 226.172 177.748 228.566 182.263C230.558 186.019 232.847 190.426 236.941 192.258C236.603 186.733 236.228 181.619 233.928 176.525C231.748 171.695 228.423 167.4 226.969 162.225C226.247 159.653 226.141 157.023 226.105 154.367C226.081 152.58 226.163 150.177 228.082 152.104C229.604 153.632 229.9 158.506 230.566 160.563C230.887 161.553 231.331 162.462 231.686 163.425C231.846 163.859 232.92 165.972 232.92 166.255C234.028 169.595 236.478 172.798 238.2 175.871Z" fill="black"/>
<path fill-rule="evenodd" clip-rule="evenodd" d="M120.682 54.1243C120.787 55.4179 121.538 58.7706 120.576 59.7943C119.301 61.1524 118.697 59.4054 118.145 58.0281C116.993 55.1498 116.42 49.5761 118.698 47.1775C121.075 44.6728 125.773 44.6053 128.31 42.1109C129.329 41.1088 129.231 41.318 129.142 39.7513C129.092 38.8668 128.519 37.6915 128.242 36.8965C127.522 34.8306 126.733 32.7896 125.98 30.7358C124.664 31.3349 122.771 33.1827 121.474 31.6338C120.276 30.2018 122.27 27.8554 123.658 27.4368C122.933 25.8542 119.518 26.1468 118.868 23.822C118.303 21.8016 119.927 22.6045 120.282 21.8087C120.7 20.8724 119.844 19.6065 120.284 18.7438C121.813 15.748 123.507 21.2562 124.268 22.2394C125.685 24.0681 128.153 24.4676 128.37 27.2337C128.504 28.9366 128.376 29.7285 129.078 31.4009C129.725 32.9405 130.493 34.417 131.036 36.0013C131.853 38.3885 133.112 42.733 131.516 45.0445C130.17 46.9943 126.902 48.4807 124.776 49.3144C123.712 49.7316 122.236 49.9859 121.375 50.7986C120.252 51.8589 120.601 52.5105 120.682 54.1243Z" fill="black"/>
<path fill-rule="evenodd" clip-rule="evenodd" d="M231.104 126.311C230.862 125.93 230.619 125.549 230.377 125.167C228.695 126.961 226.832 127.699 225.132 125.419C223.382 123.073 224.039 119.554 224.72 116.992C225.07 115.673 226.842 110.474 227.977 114.434C228.227 115.309 227.39 117.255 227.238 118.111C226.94 119.79 226.706 121.4 226.915 123.11C228.887 121.347 229.853 116.879 231.854 121.519C232.579 123.201 232.659 125.973 234.591 123.417C235.622 122.052 235.688 119.532 236.171 117.924C239.464 118.71 238.864 123.574 237.765 125.944C236.014 129.718 233.633 128.502 231.104 126.311Z" fill="black"/>
<path fill-rule="evenodd" clip-rule="evenodd" d="M242.634 41.663C243.805 43.6142 241.589 47.1824 241.188 49.1857C243.15 48.9588 248.006 44.2317 249.373 45.0111C252.218 46.6331 246.208 52.2902 245.053 53.1193C235.824 59.7444 237.488 40.5804 242.634 41.663Z" fill="black"/>
<path fill-rule="evenodd" clip-rule="evenodd" d="M231.061 63.3914C234.509 62.4327 239.158 68.6132 236.922 71.674C235.317 73.8695 233.335 72.6139 232.832 70.6812C232.576 69.6955 232.803 68.5078 232.468 67.4085C232.056 66.0549 231.503 64.7365 231.061 63.3914Z" fill="black"/>
<path fill-rule="evenodd" clip-rule="evenodd" d="M125.015 36.7505C127.637 38.9516 122.279 44.318 119.593 40.1159C118.854 38.9602 118.72 37.9052 119.815 37.4784C120.369 37.2632 121.673 37.9681 122.454 37.8434C123.309 37.7067 124.239 37.1056 125.015 36.7505Z" fill="black"/>
<path fill-rule="evenodd" clip-rule="evenodd" d="M116.005 27.9487C114.988 26.6811 112.128 18.8835 115.672 20.6202C117.451 21.4923 118.921 28.1582 116.005 27.9487Z" fill="black"/>
<path fill-rule="evenodd" clip-rule="evenodd" d="M232.997 195.658C232.896 194.674 232.796 193.69 232.695 192.706C234.003 193.372 236.628 194.03 237.084 195.522C237.939 198.324 233.967 196.082 232.997 195.658Z" fill="black"/>
<path fill-rule="evenodd" clip-rule="evenodd" d="M270.975 76.9671C270.196 75.9157 267.773 67.1455 269.875 67.3462C270.243 70.5277 270.319 73.8317 270.975 76.9671Z" fill="black"/>
<path fill-rule="evenodd" clip-rule="evenodd" d="M238.2 175.871C236.478 172.798 234.029 169.595 232.92 166.255C235.518 168.356 237.547 172.647 238.2 175.871Z" fill="black"/>
<path fill-rule="evenodd" clip-rule="evenodd" d="M308.812 168.747C308.917 169.861 309.022 170.974 309.127 172.088C307.567 172.49 308.716 169.115 308.812 168.747Z" fill="black"/>
<path fill-rule="evenodd" clip-rule="evenodd" d="M232.924 166.261C232.185 165.458 231.869 164.471 231.686 163.426C232.099 164.37 232.511 165.316 232.924 166.261Z" fill="black"/>
<path fill-rule="evenodd" clip-rule="evenodd" d="M241.853 216.682C241.88 215.691 241.908 214.699 241.935 213.711C241.908 214.702 241.88 215.692 241.853 216.682Z" fill="black"/>
<path fill-rule="evenodd" clip-rule="evenodd" d="M125.204 55.8818C125.865 55.9639 126.526 56.0459 127.186 56.1279C126.665 56.3718 125.436 56.696 125.204 55.8818Z" fill="black"/>
<path fill-rule="evenodd" clip-rule="evenodd" d="M256.958 227.084C257.646 226.98 258.336 226.744 259.011 227.124C258.326 227.111 257.642 227.097 256.958 227.084Z" fill="black"/>
<path fill-rule="evenodd" clip-rule="evenodd" d="M237.316 204.695C237.325 205.429 237.334 206.163 237.343 206.895C237.333 206.16 237.324 205.428 237.316 204.695Z" fill="black"/>
<path fill-rule="evenodd" clip-rule="evenodd" d="M251.52 193.274C251.477 194.057 251.433 194.839 251.39 195.621C251.434 194.837 251.477 194.056 251.52 193.274Z" fill="black"/>
<path fill-rule="evenodd" clip-rule="evenodd" d="M242.167 196.337C242.13 195.656 242.092 194.975 242.055 194.295C242.093 194.977 242.13 195.657 242.167 196.337Z" fill="black"/>
<path fill-rule="evenodd" clip-rule="evenodd" d="M262.595 202.346C262.558 202.952 262.521 203.559 262.484 204.164C262.521 203.557 262.558 202.951 262.595 202.346Z" fill="black"/>
<path fill-rule="evenodd" clip-rule="evenodd" d="M139.168 217.67C138.5 218.007 137.831 218.04 137.165 217.666C137.833 217.667 138.501 217.669 139.168 217.67Z" fill="black"/>
<path fill-rule="evenodd" clip-rule="evenodd" d="M207.615 34.375C207.624 34.9747 207.633 35.5745 207.643 36.1717C207.633 35.5713 207.623 34.9733 207.615 34.375Z" fill="black"/>
<path fill-rule="evenodd" clip-rule="evenodd" d="M141.208 50.7383C140.523 50.7901 139.838 50.8416 139.154 50.8935C139.838 50.8416 140.523 50.7901 141.208 50.7383Z" fill="black"/>
<path fill-rule="evenodd" clip-rule="evenodd" d="M282.67 53.0462C282.667 52.4543 282.663 51.8623 282.66 51.2715C282.974 51.8623 282.98 52.4536 282.67 53.0462Z" fill="black"/>
<path fill-rule="evenodd" clip-rule="evenodd" d="M120.682 54.1244C120.65 53.4955 120.619 52.867 120.588 52.2393C120.62 52.8685 120.651 53.4962 120.682 54.1244Z" fill="black"/>
<path fill-rule="evenodd" clip-rule="evenodd" d="M288.964 239.905C289.426 239.908 289.889 239.911 290.347 239.914C289.883 239.911 289.423 239.908 288.964 239.905Z" fill="black"/>
<path fill-rule="evenodd" clip-rule="evenodd" d="M106.914 0.105469C106.306 0.157311 105.698 0.209153 105.089 0.260639C105.698 0.209153 106.306 0.157311 106.914 0.105469Z" fill="black"/>
<path fill-rule="evenodd" clip-rule="evenodd" d="M166.909 232.082C167.301 232.081 167.693 232.081 168.081 232.081C167.687 232.082 167.298 232.082 166.909 232.082Z" fill="black"/>
<path fill-rule="evenodd" clip-rule="evenodd" d="M227.655 67.7465C227.06 67.6872 226.466 67.6275 225.871 67.5679C226.466 67.6275 227.061 67.6872 227.655 67.7465Z" fill="black"/>
<path fill-rule="evenodd" clip-rule="evenodd" d="M254.69 231.044C254.727 230.555 254.763 230.065 254.8 229.578C254.763 230.068 254.727 230.556 254.69 231.044Z" fill="black"/>
<path fill-rule="evenodd" clip-rule="evenodd" d="M190.309 61.4766C189.723 61.4713 189.138 61.4663 188.552 61.4614C189.141 61.1212 189.725 61.2185 190.309 61.4766Z" fill="black"/>
<path fill-rule="evenodd" clip-rule="evenodd" d="M112.18 0.269782C111.59 0.250963 110.966 0.558107 110.422 0.0908203C111.009 0.150474 111.594 0.210128 112.18 0.269782Z" fill="black"/>
<path fill-rule="evenodd" clip-rule="evenodd" d="M96.2403 58.0596C95.6747 58.1114 95.1087 58.1633 94.5435 58.2147C95.1094 58.1629 95.6747 58.1114 96.2403 58.0596Z" fill="black"/>
<path fill-rule="evenodd" clip-rule="evenodd" d="M131.877 217.163C131.282 217.225 130.685 217.287 130.09 217.349C130.686 217.287 131.282 217.225 131.877 217.163Z" fill="black"/>
<path fill-rule="evenodd" clip-rule="evenodd" d="M146.709 50.3796C146.128 50.392 145.547 50.4044 144.967 50.4169C145.543 50.1864 146.119 49.9691 146.709 50.3796Z" fill="black"/>
<path fill-rule="evenodd" clip-rule="evenodd" d="M241.832 209.135C241.829 208.632 241.825 208.129 241.822 207.626C241.825 208.13 241.829 208.632 241.832 209.135Z" fill="black"/>
<path fill-rule="evenodd" clip-rule="evenodd" d="M309.025 166.469C308.963 167.077 308.9 167.685 308.838 168.293C308.9 167.685 308.963 167.077 309.025 166.469Z" fill="black"/>
<path fill-rule="evenodd" clip-rule="evenodd" d="M233.627 205.67C233.583 205.152 233.54 204.634 233.497 204.118C233.54 204.636 233.584 205.153 233.627 205.67Z" fill="black"/>
<path fill-rule="evenodd" clip-rule="evenodd" d="M38.1686 200.913C38.0623 201.429 37.6855 201.531 37.0381 201.218L38.1686 200.913Z" fill="black"/>
<path fill-rule="evenodd" clip-rule="evenodd" d="M255.319 201.143C255.285 200.693 255.25 200.243 255.216 199.794C255.251 200.245 255.285 200.694 255.319 201.143Z" fill="black"/>
<path fill-rule="evenodd" clip-rule="evenodd" d="M133.569 51.4639C133.081 51.5303 132.591 51.5963 132.103 51.6627C132.592 51.5963 133.081 51.5303 133.569 51.4639Z" fill="black"/>
<path fill-rule="evenodd" clip-rule="evenodd" d="M237.021 197.308C237.02 197.75 237.02 198.192 237.019 198.632C237.02 198.189 237.02 197.749 237.021 197.308Z" fill="black"/>
<path fill-rule="evenodd" clip-rule="evenodd" d="M207.527 38.7329C207.527 39.1508 207.527 39.5684 207.528 39.9842C207.527 39.5659 207.527 39.1494 207.527 38.7329Z" fill="black"/>
<path fill-rule="evenodd" clip-rule="evenodd" d="M29.1786 136.618C29.1303 137.058 29.0819 137.499 29.0339 137.938C29.0823 137.497 29.1303 137.057 29.1786 136.618Z" fill="black"/>
<path fill-rule="evenodd" clip-rule="evenodd" d="M322.098 166.889C322.072 166.474 322.046 166.06 322.02 165.647C322.046 166.062 322.072 166.476 322.098 166.889Z" fill="black"/>
<path fill-rule="evenodd" clip-rule="evenodd" d="M69.5529 221.626C69.0477 221.618 68.5425 221.61 68.0374 221.602C68.5486 221.252 69.0523 221.327 69.5529 221.626Z" fill="black"/>
<path fill-rule="evenodd" clip-rule="evenodd" d="M128.382 27.8558C128.374 27.44 128.366 27.0242 128.358 26.6099C128.617 27.0214 128.701 27.4347 128.382 27.8558Z" fill="black"/>
<path fill-rule="evenodd" clip-rule="evenodd" d="M88.0461 22.5829C88.0813 22.1727 88.1165 21.7626 88.1514 21.355C88.1162 21.7658 88.0813 22.1742 88.0461 22.5829Z" fill="black"/>
<path fill-rule="evenodd" clip-rule="evenodd" d="M255.022 166.147C255.004 165.695 254.986 165.243 254.97 164.792C254.987 165.244 255.004 165.696 255.022 166.147Z" fill="black"/>
<path fill-rule="evenodd" clip-rule="evenodd" d="M251.77 189.5C251.758 189.926 251.745 190.353 251.732 190.777C251.744 190.349 251.757 189.925 251.77 189.5Z" fill="black"/>
<path fill-rule="evenodd" clip-rule="evenodd" d="M193.622 230.612C193.939 230.612 194.255 230.611 194.568 230.611C194.251 230.612 193.937 230.612 193.622 230.612Z" fill="black"/>
<path fill-rule="evenodd" clip-rule="evenodd" d="M39.5813 230.828C39.8973 230.837 40.213 230.845 40.5252 230.854C40.2081 230.846 39.8945 230.837 39.5813 230.828Z" fill="black"/>
<path fill-rule="evenodd" clip-rule="evenodd" d="M230.661 193.414C227.58 191.036 224.894 187.48 224.269 183.673C225.594 185.168 226.707 186.837 228.033 188.331C228.56 188.924 229.206 189.435 229.711 190.04C230.864 191.419 230.661 191.48 230.661 193.414Z" fill="black"/>
<path fill-rule="evenodd" clip-rule="evenodd" d="M219.837 177.34C218.358 173.937 217.074 169.81 217.332 166.056C218.352 169.464 220.719 173.745 219.837 177.34Z" fill="black"/>
<path fill-rule="evenodd" clip-rule="evenodd" d="M224.798 197.347C224.773 198.335 224.748 199.323 224.724 200.308C224.75 199.319 224.774 198.333 224.798 197.347Z" fill="black"/>
<path fill-rule="evenodd" clip-rule="evenodd" d="M29.2319 224.196C30.2427 224.256 31.2537 224.316 32.2645 224.376C31.2491 224.39 30.2203 224.636 29.2319 224.196Z" fill="black"/>
<path fill-rule="evenodd" clip-rule="evenodd" d="M224.793 194.084C224.797 194.926 224.8 195.769 224.804 196.609C224.8 195.766 224.797 194.925 224.793 194.084Z" fill="black"/>
<path fill-rule="evenodd" clip-rule="evenodd" d="M183.264 96.4208C182.695 96.3913 182.126 96.3615 181.561 96.332C182.132 96.3615 182.698 96.3913 183.264 96.4208Z" fill="black"/>
<path fill-rule="evenodd" clip-rule="evenodd" d="M192.521 75.4696C192.519 74.7861 192.517 74.1025 192.515 73.4204C192.516 74.1043 192.519 74.7871 192.521 75.4696Z" fill="black"/>
<path fill-rule="evenodd" clip-rule="evenodd" d="M180.3 92.6165C180.274 92.1358 180.018 91.8936 179.531 91.8904C180.509 91.3628 180.765 91.6049 180.3 92.6165Z" fill="black"/>
<path fill-rule="evenodd" clip-rule="evenodd" d="M209.292 130.643C209.331 130.035 209.369 129.427 209.407 128.82C209.369 129.428 209.331 130.036 209.292 130.643Z" fill="black"/>
<path fill-rule="evenodd" clip-rule="evenodd" d="M43.5825 224.626C44.2644 224.579 44.9463 224.532 45.6281 224.484C44.9459 224.532 44.2644 224.579 43.5825 224.626Z" fill="black"/>
<path fill-rule="evenodd" clip-rule="evenodd" d="M186.796 142.047L188.825 142.033C188.148 142.038 187.472 142.042 186.796 142.047Z" fill="black"/>
<path fill-rule="evenodd" clip-rule="evenodd" d="M206.163 67.9253C205.691 67.9292 205.219 67.9331 204.752 67.9367C205.225 67.9327 205.694 67.9292 206.163 67.9253Z" fill="black"/>
<path fill-rule="evenodd" clip-rule="evenodd" d="M304.521 232.512C305.112 232.509 305.703 232.507 306.295 232.504C305.705 232.876 305.114 232.867 304.521 232.512Z" fill="black"/>
<path fill-rule="evenodd" clip-rule="evenodd" d="M56.1879 150.737C55.7869 150.748 55.3859 150.76 54.9888 150.771C55.3912 150.76 55.7894 150.748 56.1879 150.737Z" fill="black"/>
<path fill-rule="evenodd" clip-rule="evenodd" d="M269.198 62.2407C269.577 62.6065 269.078 63.4473 268.626 63.1575C268.817 62.8518 269.007 62.5464 269.198 62.2407Z" fill="black"/>
<path fill-rule="evenodd" clip-rule="evenodd" d="M83.7898 187.76C83.8065 187.243 83.8236 186.725 83.8403 186.209C83.8232 186.727 83.8065 187.244 83.7898 187.76Z" fill="black"/>
<path fill-rule="evenodd" clip-rule="evenodd" d="M219.373 188.047C219.4 187.507 219.428 186.967 219.454 186.428C219.427 186.968 219.4 187.507 219.373 188.047Z" fill="black"/>
<path fill-rule="evenodd" clip-rule="evenodd" d="M313.993 131.795C314.015 132.335 314.038 132.876 314.06 133.414C314.037 132.874 314.015 132.334 313.993 131.795Z" fill="black"/>
<path fill-rule="evenodd" clip-rule="evenodd" d="M131.281 193C131.887 193.051 132.492 193.103 133.098 193.154C132.492 193.103 131.887 193.051 131.281 193Z" fill="black"/>
<path fill-rule="evenodd" clip-rule="evenodd" d="M214.352 151.549C214.382 151.012 214.412 150.475 214.441 149.939C214.411 150.476 214.382 151.012 214.352 151.549Z" fill="black"/>
<path fill-rule="evenodd" clip-rule="evenodd" d="M109.106 161.761C109.71 161.816 110.313 161.872 110.917 161.927C110.313 161.872 109.71 161.816 109.106 161.761Z" fill="black"/>
<path fill-rule="evenodd" clip-rule="evenodd" d="M162.523 208.705C162.134 208.705 161.746 208.705 161.361 208.705C161.751 208.705 162.137 208.705 162.523 208.705Z" fill="black"/>
<path fill-rule="evenodd" clip-rule="evenodd" d="M196.814 77.4888C196.791 77.9905 196.768 78.4919 196.745 78.9911C196.769 78.489 196.791 77.9887 196.814 77.4888Z" fill="black"/>
<path fill-rule="evenodd" clip-rule="evenodd" d="M205.427 199.183C206.024 198.759 206.606 199.039 207.189 199.223C206.601 199.21 206.014 199.196 205.427 199.183Z" fill="black"/>
<path fill-rule="evenodd" clip-rule="evenodd" d="M135.564 55.6287C135.171 55.6127 134.778 55.5964 134.389 55.5786C134.784 55.5946 135.174 55.6116 135.564 55.6287Z" fill="black"/>
<path fill-rule="evenodd" clip-rule="evenodd" d="M230.828 208.409C230.792 207.909 230.757 207.41 230.722 206.912C230.757 207.412 230.792 207.911 230.828 208.409Z" fill="black"/>
<path fill-rule="evenodd" clip-rule="evenodd" d="M198.653 152.025C198.329 152.028 198.005 152.03 197.685 152.032C198.01 152.031 198.332 152.028 198.653 152.025Z" fill="black"/>
<path fill-rule="evenodd" clip-rule="evenodd" d="M212.315 170.168C212.315 169.752 212.316 169.335 212.316 168.92C212.316 169.338 212.315 169.753 212.315 170.168Z" fill="black"/>
<path fill-rule="evenodd" clip-rule="evenodd" d="M191.592 200.723C192.077 200.66 192.562 200.598 193.047 200.535C192.562 200.598 192.077 200.66 191.592 200.723Z" fill="black"/>
<path fill-rule="evenodd" clip-rule="evenodd" d="M170.619 140.11C171.145 140.107 171.67 140.103 172.196 140.1C171.672 140.408 171.146 140.35 170.619 140.11Z" fill="black"/>
<path fill-rule="evenodd" clip-rule="evenodd" d="M197.839 89.1122C197.535 89.1093 197.232 89.1065 196.932 89.104C197.237 89.1065 197.538 89.1093 197.839 89.1122Z" fill="black"/>
<path fill-rule="evenodd" clip-rule="evenodd" d="M108.107 166.395C107.794 166.391 107.481 166.387 107.172 166.382C107.486 166.387 107.797 166.391 108.107 166.395Z" fill="black"/>
<path fill-rule="evenodd" clip-rule="evenodd" d="M47.613 145.886C48.1374 145.891 48.6618 145.897 49.1862 145.902C48.6586 146.198 48.1342 146.206 47.613 145.886Z" fill="black"/>
<path fill-rule="evenodd" clip-rule="evenodd" d="M314.043 146.753C314.01 147.152 313.976 147.552 313.945 147.95C313.978 147.549 314.01 147.151 314.043 146.753Z" fill="black"/>
<path fill-rule="evenodd" clip-rule="evenodd" d="M180.544 210.975C180.589 210.538 180.634 210.102 180.678 209.667C180.633 210.104 180.589 210.539 180.544 210.975Z" fill="black"/>
<path fill-rule="evenodd" clip-rule="evenodd" d="M95.7544 158.984C96.2841 158.992 96.8142 159 97.3442 159.007C96.8088 159.375 96.282 159.143 95.7544 158.984Z" fill="black"/>
<path fill-rule="evenodd" clip-rule="evenodd" d="M216.558 82.3798C217.074 82.3215 217.589 82.2633 218.104 82.2051C217.589 82.2633 217.074 82.3215 216.558 82.3798Z" fill="black"/>
<path fill-rule="evenodd" clip-rule="evenodd" d="M173.49 222.228C173.537 222.686 173.583 223.144 173.629 223.601C173.583 223.143 173.536 222.685 173.49 222.228Z" fill="black"/>
<path fill-rule="evenodd" clip-rule="evenodd" d="M219.382 192.079C219.381 191.652 219.38 191.224 219.379 190.798C219.38 191.227 219.381 191.653 219.382 192.079Z" fill="black"/>
<path fill-rule="evenodd" clip-rule="evenodd" d="M32.5149 224.437C33.0137 224.503 33.5125 224.568 34.0109 224.634C33.5121 224.568 33.0133 224.503 32.5149 224.437Z" fill="black"/>
<path fill-rule="evenodd" clip-rule="evenodd" d="M41.8723 224.638C42.3647 224.236 42.8645 224.36 43.3662 224.617C42.8681 224.624 42.37 224.631 41.8723 224.638Z" fill="black"/>
<path fill-rule="evenodd" clip-rule="evenodd" d="M131.849 165.724C132.336 165.665 132.824 165.605 133.311 165.545C132.823 165.605 132.336 165.665 131.849 165.724Z" fill="black"/>
<path fill-rule="evenodd" clip-rule="evenodd" d="M186.045 226.902C186.542 226.836 187.039 226.77 187.536 226.703C187.038 226.77 186.542 226.836 186.045 226.902Z" fill="black"/>
<path fill-rule="evenodd" clip-rule="evenodd" d="M168.661 227.674C169.168 227.609 169.674 227.544 170.181 227.479C169.674 227.544 169.168 227.609 168.661 227.674Z" fill="black"/>
<path fill-rule="evenodd" clip-rule="evenodd" d="M196.567 80.5205C196.544 80.9292 196.522 81.3383 196.5 81.7445C196.523 81.3347 196.545 80.9274 196.567 80.5205Z" fill="black"/>
<path fill-rule="evenodd" clip-rule="evenodd" d="M77.1841 177.98C77.2292 177.546 77.2744 177.112 77.3195 176.68C77.274 177.114 77.2292 177.548 77.1841 177.98Z" fill="black"/>
<path fill-rule="evenodd" clip-rule="evenodd" d="M192.653 69.9484C192.666 69.5227 192.679 69.097 192.692 68.6733C192.68 69.0998 192.666 69.5241 192.653 69.9484Z" fill="black"/>
<path fill-rule="evenodd" clip-rule="evenodd" d="M95.8438 173.154C95.8885 173.588 95.9333 174.023 95.9778 174.456C95.933 174.021 95.8882 173.587 95.8438 173.154Z" fill="black"/>
<path fill-rule="evenodd" clip-rule="evenodd" d="M97.5232 158.988C98.0373 159.045 98.5513 159.102 99.0651 159.158C98.551 159.102 98.0369 159.045 97.5232 158.988Z" fill="black"/>
<path fill-rule="evenodd" clip-rule="evenodd" d="M179.359 222.345C179.652 223.203 179.544 225.2 178.713 225.805C176.988 227.06 176.811 224.768 176.469 223.529C175.519 220.094 173.99 216.257 173.6 212.725C173.481 211.642 173.416 209.613 174.851 209.247C176.236 208.895 176.938 211.087 177.415 212.212C178.74 215.336 179.509 218.959 179.359 222.345Z" fill="black"/>
<path fill-rule="evenodd" clip-rule="evenodd" d="M179.36 222.344C179.38 221.9 179.4 221.457 179.419 221.015C179.399 221.459 179.38 221.902 179.36 222.344Z" fill="black"/>
</svg>
